<svg xmlns="http://www.w3.org/2000/svg" viewBox="0 0 100 100">
  <style>
    .logo { fill: #004B87; }
    @media (prefers-color-scheme: dark) {
      .logo { fill: #60a5fa; }
    }
  </style>

  <!-- TalentFino Logo: Person reaching upward with arrow -->

  <!-- Head -->
  <circle class="logo" cx="30" cy="28" r="12"/>

  <!-- Body/Torso -->
  <path class="logo" d="M 22 44 L 20 72 C 20 75 22 77 25 77 L 35 77 C 38 77 40 75 40 72 L 38 44 Z"/>

  <!-- Left arm (downward) -->
  <path class="logo" d="M 23 46 L 12 60 C 10 63 11 66 13 66 C 14 66 15 65 16 64 L 26 52 Z"/>

  <!-- Right arm reaching up -->
  <path class="logo" d="M 37 46 L 48 36 L 58 26 L 68 18 L 76 12"
        stroke="#004B87" stroke-width="7" stroke-linecap="round" fill="none"/>

  <!-- Arrow shaft -->
  <line class="logo" x1="42" y1="42" x2="82" y2="8"
        stroke="#004B87" stroke-width="6" stroke-linecap="round"/>

  <!-- Arrow head -->
  <path class="logo" d="M 82 8 L 72 12 L 76 20 Z"/>
  <path class="logo" d="M 82 8 L 78 18 L 88 14 Z"/>

  <style>
    line, path[stroke] {
      stroke: #004B87;
    }
    @media (prefers-color-scheme: dark) {
      line, path[stroke] {
        stroke: #60a5fa;
      }
    }
  </style>
</svg>
